<svg xmlns="http://www.w3.org/2000/svg" viewBox="0 0 100 100" width="512" height="512">
<rect width="100" height="100" rx="24" fill="#F26B1D"/><g transform="translate(5 31) scale(0.128)"><rect x="70" y="252" width="560" height="7" rx="3.5" fill="#C9540F"/><path d="M22 208 L22 152 C22 136 34 128 52 124 L66 120 L70 108 L92 114 L160 108 C200 56 268 34 362 34 C446 34 506 48 566 92 L648 110 C680 117 694 132 696 154 L696 208 Z" fill="#15181C"/><path d="M180 108 C212 66 270 52 360 52 C432 52 484 62 536 98 Z" fill="#F26B1D"/><path d="M334 52 L350 52 L356 98 L338 98 Z" fill="#15181C"/><path d="M652 128 L694 142 L694 156 L648 148 Z" fill="#F26B1D"/><path d="M22 150 L52 148 L52 164 L22 164 Z" fill="#FFFFFF"/><path d="M258 124 L478 124 L470 208 L240 208 Z" fill="#FFFFFF"/><path d="M261.856 186.704Q259.424 186.704 257.72799999999995 185.008Q256.032 183.312 256.032 180.752Q256.032 179.856 256.224 179.12Q256.416 178.384 256.864 177.872L274.656 153.232H262.112Q260.704 153.232 259.296 153.00799999999998Q257.888 152.784 256.96 151.6Q256.032 150.416 256.032 147.6Q256.032 144.656 256.89599999999996 143.44Q257.76 142.224 259.13599999999997 141.968Q260.512 141.712 261.92 141.712H285.856Q288.288 141.712 289.98400000000004 143.44Q291.68 145.168 291.68 147.728Q291.68 148.624 291.488 149.36Q291.296 150.096 290.848 150.608L273.056 175.248H286.752Q288.15999999999997 175.248 289.472 175.504Q290.784 175.76 291.648 176.944Q292.512 178.128 292.512 180.88Q292.512 183.76 291.648 184.976Q290.784 186.192 289.44 186.448Q288.096 186.704 286.624 186.704Z M309.856 186.448Q306.784 186.448 304.12800000000004 185.232Q301.47200000000004 184.016 299.48800000000006 181.808Q297.504 179.6 296.41600000000005 176.656Q295.32800000000003 173.712 295.32800000000003 170.256V159.824Q295.32800000000003 158.352 295.58400000000006 157.04000000000002Q295.84000000000003 155.728 297.05600000000004 154.864Q298.272 154.0 301.15200000000004 154.0Q304.096 154.0 305.28 154.864Q306.464 155.728 306.72 157.072Q306.976 158.416 306.976 159.888V170.256Q306.976 171.728 307.52 172.752Q308.064 173.776 309.12 174.32Q310.17600000000004 174.864 311.584 174.864Q312.992 174.864 314.016 174.288Q315.04 173.712 315.616 172.688Q316.192 171.664 316.192 170.256V159.76Q316.192 158.288 316.448 156.976Q316.704 155.664 317.92 154.832Q319.136 154.0 322.016 154.0Q324.96000000000004 154.0 326.144 154.864Q327.32800000000003 155.728 327.58400000000006 157.072Q327.84000000000003 158.416 327.84000000000003 159.824V180.88Q327.84000000000003 182.288 327.58400000000006 183.568Q327.32800000000003 184.848 326.112 185.68Q324.896 186.512 322.016 186.512Q319.904 186.512 318.72 186.03199999999998Q317.536 185.552 317.024 184.816Q316.512 184.08 316.416 183.344Q316.32 182.608 316.32 182.096L317.408 182.416Q317.408 182.416 316.896 183.024Q316.384 183.632 315.39200000000005 184.43200000000002Q314.40000000000003 185.232 313.024 185.84Q311.648 186.448 309.856 186.448Z M337.312 186.576Q334.432 186.576 333.216 185.712Q332.0 184.848 331.77599999999995 183.50400000000002Q331.55199999999996 182.16 331.55199999999996 180.752V159.824Q331.55199999999996 158.352 331.808 157.04000000000002Q332.06399999999996 155.728 333.28 154.89600000000002Q334.496 154.064 337.44 154.064Q340.32 154.064 341.632 155.184Q342.944 156.304 342.944 158.8L341.856 158.48Q341.856 158.48 342.336 157.808Q342.816 157.136 343.74399999999997 156.24Q344.67199999999997 155.344 346.01599999999996 154.672Q347.36 154.0 349.08799999999997 154.0Q351.072 154.0 352.736 154.512Q354.4 155.024 355.77599999999995 156.07999999999998Q357.152 157.136 358.176 158.672Q358.88 157.84 360.096 156.752Q361.312 155.664 363.00800000000004 154.832Q364.704 154.0 366.816 154.0Q370.592 154.0 373.248 155.92000000000002Q375.904 157.84 377.28 161.488Q378.656 165.136 378.656 170.32V180.752Q378.656 182.16 378.4 183.50400000000002Q378.144 184.848 376.928 185.712Q375.712 186.576 372.768 186.576Q369.888 186.576 368.672 185.68Q367.456 184.784 367.23199999999997 183.44Q367.008 182.096 367.008 180.688V170.256Q367.008 168.72 366.65599999999995 167.728Q366.304 166.736 365.63199999999995 166.224Q364.96 165.712 363.936 165.712Q362.848 165.712 362.17600000000004 166.16Q361.504 166.608 361.216 167.6Q360.928 168.59199999999998 360.928 170.32V180.752Q360.928 182.16 360.672 183.50400000000002Q360.416 184.848 359.2 185.712Q357.984 186.576 355.03999999999996 186.576Q352.15999999999997 186.576 350.94399999999996 185.68Q349.728 184.784 349.504 183.44Q349.28 182.096 349.28 180.688V170.256Q349.28 168.72 348.96 167.696Q348.64 166.672 347.96799999999996 166.192Q347.296 165.712 346.20799999999997 165.712Q344.928 165.712 344.288 166.35199999999998Q343.64799999999997 166.992 343.424 168.016Q343.2 169.04 343.2 170.256V180.816Q343.2 182.224 342.94399999999996 183.56799999999998Q342.688 184.912 341.472 185.744Q340.256 186.576 337.312 186.576Z M398.81600000000003 187.28Q394.016 187.28 390.688 185.712Q387.36 184.144 385.312 181.61599999999999Q383.264 179.088 382.304 176.144Q381.344 173.2 381.344 170.448Q381.344 165.392 383.584 161.552Q385.824 157.712 389.79200000000003 155.536Q393.76 153.36 398.88 153.36Q402.848 153.36 405.664 154.64Q408.48 155.92 410.24 157.904Q412.0 159.888 412.832 162.128Q413.664 164.368 413.664 166.288Q413.664 169.936 411.872 171.856Q410.08000000000004 173.776 407.264 173.776H393.632Q393.88800000000003 174.8 394.688 175.536Q395.488 176.272 396.704 176.688Q397.92 177.10399999999998 399.32800000000003 177.10399999999998Q400.736 177.10399999999998 401.824 176.944Q402.91200000000003 176.784 403.712 176.528Q404.512 176.272 405.18399999999997 176.016Q405.856 175.76 406.4 175.6Q406.944 175.44 407.456 175.44Q408.608 175.44 409.568 176.208Q410.528 176.976 411.296 178.512Q411.744 179.344 411.93600000000004 180.07999999999998Q412.12800000000004 180.816 412.12800000000004 181.456Q412.12800000000004 183.376 410.56000000000006 184.656Q408.992 185.936 406.048 186.608Q403.10400000000004 187.28 398.81600000000003 187.28ZM393.632 167.76H400.8Q401.696 167.76 402.112 167.37599999999998Q402.528 166.992 402.528 166.224Q402.528 165.392 402.048 164.816Q401.56800000000004 164.24 400.736 163.952Q399.904 163.664 398.752 163.664Q397.216 163.664 396.064 164.272Q394.91200000000003 164.88 394.30400000000003 165.808Q393.696 166.736 393.632 167.76Z M433.05600000000004 187.28Q428.25600000000003 187.28 424.928 185.712Q421.6 184.144 419.552 181.61599999999999Q417.504 179.088 416.544 176.144Q415.584 173.2 415.584 170.448Q415.584 165.392 417.824 161.552Q420.064 157.712 424.03200000000004 155.536Q428.0 153.36 433.12 153.36Q437.088 153.36 439.904 154.64Q442.72 155.92 444.48 157.904Q446.24 159.888 447.072 162.128Q447.904 164.368 447.904 166.288Q447.904 169.936 446.112 171.856Q444.32000000000005 173.776 441.504 173.776H427.872Q428.12800000000004 174.8 428.928 175.536Q429.728 176.272 430.944 176.688Q432.16 177.10399999999998 433.56800000000004 177.10399999999998Q434.976 177.10399999999998 436.064 176.944Q437.15200000000004 176.784 437.952 176.528Q438.752 176.272 439.424 176.016Q440.096 175.76 440.64 175.6Q441.184 175.44 441.696 175.44Q442.848 175.44 443.808 176.208Q444.76800000000003 176.976 445.536 178.512Q445.98400000000004 179.344 446.17600000000004 180.07999999999998Q446.36800000000005 180.816 446.36800000000005 181.456Q446.36800000000005 183.376 444.80000000000007 184.656Q443.232 185.936 440.288 186.608Q437.34400000000005 187.28 433.05600000000004 187.28ZM427.872 167.76H435.04Q435.93600000000004 167.76 436.35200000000003 167.37599999999998Q436.76800000000003 166.992 436.76800000000003 166.224Q436.76800000000003 165.392 436.288 164.816Q435.80800000000005 164.24 434.976 163.952Q434.144 163.664 432.992 163.664Q431.456 163.664 430.30400000000003 164.272Q429.15200000000004 164.88 428.54400000000004 165.808Q427.93600000000004 166.736 427.872 167.76Z" fill="#15181C"/><g stroke="#FFFFFF" stroke-width="13" stroke-linecap="round" fill="none"><path d="M590 6 L578 -26"/><path d="M632 4 L650 -24"/></g><g><circle cx="150" cy="212" r="50" fill="#15181C"/><circle cx="150" cy="212" r="34" fill="none" stroke="#F26B1D" stroke-width="11"/><circle cx="150" cy="212" r="19" fill="#15181C"/></g><g><circle cx="560" cy="212" r="50" fill="#15181C"/><circle cx="560" cy="212" r="34" fill="none" stroke="#F26B1D" stroke-width="11"/><circle cx="560" cy="212" r="19" fill="#15181C"/></g></g>
</svg>
