<svg xmlns="http://www.w3.org/2000/svg" viewBox="0 0 420 120" width="420" height="120">
<g transform="translate(100 40) scale(1.2)" fill="none" stroke-width="11" stroke-linecap="round" stroke-linejoin="round">
  <g stroke="#F26B1D"><path d="M-46 4 H-24"/><path d="M-58 20 H-24"/><path d="M-46 36 H-24"/></g>
  <g stroke="#FFFFFF">
  <path d="M0 0 H30 L0 40 H30"/>
  <path d="M52 0 V22 A15 15 0 0 0 82 22 M82 0 V40"/>
  <path d="M104 40 V12 A12 12 0 0 1 128 12 V40 M128 12 A12 12 0 0 1 152 12 V40"/>
  </g>
  <g stroke="#F26B1D"><path d="M174 20 H206 A16 16 0 1 0 201.3 31.3"/></g>
  <circle cx="190" cy="20" r="7.5" fill="#F26B1D" stroke="none"/>
</g>
</svg>
