<svg xmlns="http://www.w3.org/2000/svg" viewBox="0 0 300 70" width="300" height="70">
<g transform="translate(17 15) scale(1.0)" fill="none" stroke-width="11" stroke-linecap="round" stroke-linejoin="round"><g stroke="#FFFFFF"><path d="M0 0 H30 L0 40 H30"/><path d="M52 0 V22 A15 15 0 0 0 82 22 M82 0 V40"/><path d="M104 40 V12 A12 12 0 0 1 128 12 V40 M128 12 A12 12 0 0 1 152 12 V40"/><path d="M206 20 A16 16 0 1 0 201.3 31.3"/><path d="M174 20 H199"/><path d="M260 20 A16 16 0 1 0 255.3 31.3"/></g><path d="M228 20 H253" stroke="#FFFFFF"/></g>
</svg>
